# xmcd CD database file
#
# Track frame offsets:
#	150
#	30078
#	60765
#
# Disc length: 1208 seconds
#
# Revision: 0
# Processed by: cddbd v1.4PL0 Copyright (c) Steve Scherf et al.
# Submitted via: CDex 1.40Beta9
#
DISCID=1004b603
DTITLE=Pure Software - Boundschecker Blues
DYEAR=1900
DGENRE=Blues
TTITLE0=Boundschecker Blues (diced)
TTITLE1=Boundschecker Blues (take 1)
TTITLE2=Boundschecker Blues (take 2)
EXTD=ID3G: 0
EXTT0=
EXTT1=
EXTT2=
PLAYORDER=
